<?xml version="1.0" standalone="no"?>
<!DOCTYPE svg PUBLIC "-//W3C//DTD SVG 20010904//EN"
 "http://www.w3.org/TR/2001/REC-SVG-20010904/DTD/svg10.dtd">
<svg version="1.0" xmlns="http://www.w3.org/2000/svg"
 width="700.000000pt" height="700.000000pt" viewBox="0 0 700.000000 700.000000"
 preserveAspectRatio="xMidYMid meet">
<metadata>
Created by potrace 1.14, written by Peter Selinger 2001-2017
</metadata>
<g transform="translate(0.000000,700.000000) scale(0.100000,-0.100000)"
fill="#000000" stroke="none">
<path d="M3427 6904 c-1 -1 -58 -4 -127 -8 -69 -3 -141 -8 -160 -11 -19 -2
-55 -7 -80 -10 -25 -3 -72 -10 -105 -15 -33 -5 -78 -12 -100 -16 -141 -22
-459 -116 -655 -194 -187 -74 -492 -242 -660 -363 -81 -58 -257 -196 -291
-227 -194 -181 -289 -282 -410 -432 -66 -84 -197 -267 -236 -333 -6 -11 -31
-51 -53 -90 -51 -84 -178 -347 -209 -430 -13 -33 -27 -69 -32 -80 -36 -85
-118 -371 -144 -502 -28 -149 -48 -295 -60 -448 -5 -66 -6 -432 0 -470 2 -16
6 -61 9 -100 4 -38 8 -81 10 -95 3 -14 9 -56 15 -95 6 -38 14 -86 17 -105 17
-106 102 -422 124 -462 6 -10 10 -23 10 -29 0 -12 41 -121 71 -186 10 -24 19
-45 19 -48 0 -3 31 -67 68 -143 172 -344 372 -622 642 -893 346 -347 751 -609
1202 -778 138 -52 353 -117 418 -127 19 -3 38 -8 42 -10 14 -9 171 -37 273
-49 28 -4 60 -8 73 -10 156 -25 588 -25 782 0 19 2 55 7 80 10 43 5 128 20
180 30 14 3 37 7 52 10 94 17 366 95 425 121 17 8 35 14 39 14 4 0 53 18 108
41 172 70 430 204 546 283 25 17 52 36 61 41 69 43 234 168 320 241 260 224
505 509 665 772 26 42 55 89 65 104 33 48 156 300 207 424 68 166 151 437 176
574 2 14 9 45 15 70 32 144 55 402 55 630 0 272 -21 477 -78 745 -100 468
-334 958 -649 1360 -193 246 -471 506 -734 687 -445 308 -983 514 -1493 573
-25 3 -61 7 -80 10 -59 8 -407 24 -413 19z"/>
</g>
</svg>
