<svg width="36" height="36" viewBox="0 0 36 36" fill="none" xmlns="http://www.w3.org/2000/svg">
<circle cx="17.9356" cy="17.9356" r="16.9356" fill="black" stroke="#EBCC39"/>
<circle cx="17.9357" cy="17.9355" r="15.6564" fill="#EBCC39"/>
<circle cx="17.9357" cy="17.9355" r="15.6564" stroke="black"/>
<path d="M28.2547 18.1151C28.2547 20.58 26.6829 23.9065 25.675 23.9833C24.6702 24.0636 19.8225 20.8149 19.2587 19.9116C19.0476 19.5774 18.9153 19.4363 18.7928 19.3878C18.6637 19.3399 18.544 19.3974 18.3578 19.4488L17.9357 19.5035L17.5136 19.4488C17.3278 19.3974 17.2081 19.3396 17.0789 19.3878C16.9593 19.436 16.827 19.5774 16.6159 19.9116C16.0486 20.8149 11.2013 24.0636 10.1996 23.9833C9.19164 23.9065 7.6167 20.58 7.6167 18.1151C7.6167 15.6471 9.19164 12.3241 10.1996 12.2438C11.2013 12.1667 16.0486 15.4157 16.6159 16.3155C16.827 16.6497 16.9593 16.7911 17.0789 16.8393C17.2081 16.8875 17.3278 16.8297 17.5136 16.7783L17.9357 16.7236L18.3578 16.7783C18.544 16.8297 18.6637 16.8875 18.7928 16.8393C18.9156 16.7911 19.0479 16.6497 19.2587 16.3155C19.8225 15.4157 24.6702 12.1667 25.675 12.2438C26.6829 12.3241 28.2547 15.6471 28.2547 18.1151Z" fill="black"/>
</svg>
