<svg width="38" height="37" viewBox="0 0 38 37" fill="none" xmlns="http://www.w3.org/2000/svg">
<circle cx="18.9356" cy="18.4356" r="17.4356" fill="white"/>
<circle cx="18.9356" cy="18.4356" r="17.9356" stroke="black" stroke-opacity="0.95"/>
<circle cx="18.9357" cy="18.4355" r="16.1564" fill="#EBCC39" stroke="#EBCC39"/>
<path d="M29.2547 18.6151C29.2547 21.08 27.6829 24.4065 26.675 24.4833C25.6702 24.5636 20.8225 21.3149 20.2587 20.4116C20.0476 20.0774 19.9153 19.9363 19.7928 19.8878C19.6637 19.8399 19.544 19.8974 19.3578 19.9488L18.9357 20.0035L18.5136 19.9488C18.3278 19.8974 18.2081 19.8396 18.0789 19.8878C17.9593 19.936 17.827 20.0774 17.6159 20.4116C17.0486 21.3149 12.2013 24.5636 11.1996 24.4833C10.1916 24.4065 8.6167 21.08 8.6167 18.6151C8.6167 16.1471 10.1916 12.8241 11.1996 12.7438C12.2013 12.6667 17.0486 15.9157 17.6159 16.8155C17.827 17.1497 17.9593 17.2911 18.0789 17.3393C18.2081 17.3875 18.3278 17.3297 18.5136 17.2783L18.9357 17.2236L19.3578 17.2783C19.544 17.3297 19.6637 17.3875 19.7928 17.3393C19.9156 17.2911 20.0479 17.1497 20.2587 16.8155C20.8225 15.9157 25.6702 12.6667 26.675 12.7438C27.6829 12.8241 29.2547 16.1471 29.2547 18.6151Z" fill="black"/>
</svg>
