<svg width="78" height="78" viewBox="0 0 78 78" fill="none" xmlns="http://www.w3.org/2000/svg">
<circle cx="39.1021" cy="39" r="38.3979" stroke="black"/>
<path d="M61.8633 39.975C61.8633 45.4741 58.3567 52.8952 56.108 53.0666C53.8663 53.2458 43.0514 45.9982 41.7935 43.9828C41.3227 43.2372 41.0275 42.9224 40.7541 42.8142C40.466 42.7073 40.199 42.8357 39.7837 42.9504L38.842 43.0723L37.9004 42.9504C37.4858 42.8357 37.2187 42.7066 36.9306 42.8142C36.6636 42.9217 36.3684 43.2372 35.8976 43.9828C34.632 45.9982 23.8178 53.2458 21.5831 53.0666C19.3344 52.8952 15.8208 45.4741 15.8208 39.975C15.8208 34.4688 19.3344 27.0555 21.5831 26.8763C23.8178 26.7042 34.632 33.9526 35.8976 35.9601C36.3684 36.7057 36.6636 37.0212 36.9306 37.1287C37.2187 37.2363 37.4858 37.1072 37.9004 36.9925L38.842 36.8706L39.7837 36.9925C40.199 37.1072 40.466 37.2363 40.7541 37.1287C41.0282 37.0212 41.3234 36.7057 41.7935 35.9601C43.0514 33.9526 53.8663 26.7042 56.108 26.8763C58.3567 27.0555 61.8633 34.4688 61.8633 39.975Z" fill="black"/>
</svg>
